<?xml version="1.0" encoding="UTF-8"?>
<svg width="22px" height="22px" viewBox="0 0 22 22" version="1.1" xmlns="http://www.w3.org/2000/svg" xmlns:xlink="http://www.w3.org/1999/xlink">
    <!-- Generator: Sketch 52.5 (67469) - http://www.bohemiancoding.com/sketch -->
    <title>ico_hot_active</title>
    <desc>Created with Sketch.</desc>
    <defs>
        <polygon id="path-1" points="4.4e-05 0 22 0 22 21.999868 4.4e-05 21.999868"></polygon>
    </defs>
    <g id="saostar-new" stroke="none" stroke-width="1" fill="none" fill-rule="evenodd" opacity="0.846051897">
        <g id="pc-home-t3.2020" transform="translate(-1137.000000, -19.000000)">
            <g id="logo-+-menu-copy" transform="translate(0.000000, 18.000000)">
                <g id="sub-menu-color" transform="translate(1137.000000, 0.000000)">
                    <g id="ico_hot-copy-2" transform="translate(0.000000, 1.000000)">
                        <g id="ico_hot">
                            <g>
                                <path d="M8.933892,17.2359 C8.625012,16.75234 8.461332,16.1909 8.461332,15.61758 C8.461332,14.82118 9.051372,14.2109 9.675732,13.56454 C10.455412,12.7567 11.262372,11.92114 11.008052,10.66054 C10.971532,10.47882 11.057772,10.29446 11.220572,10.20558 C11.383372,10.1167 11.584892,10.14398 11.717772,10.27334 C13.000372,11.51942 14.384612,13.91654 14.384612,15.61758 C14.385492,16.11566 14.262292,16.60582 14.026892,17.0445 C15.309492,16.17946 16.077732,14.73318 16.076852,13.18614 C16.076852,12.13982 15.165612,11.17446 14.110492,10.05642 C12.793132,8.66162 11.201212,6.9751 11.145332,4.58854 C9.162692,6.95706 7.796052,10.13782 7.796052,12.54286 C7.796052,12.7061 7.806172,12.8689 7.821132,13.0273 C7.833012,13.1505 7.789452,13.27326 7.702772,13.36214 C7.615212,13.4497 7.494652,13.4959 7.371012,13.48886 C6.582532,13.44178 5.816492,13.21166 5.132292,12.81742 C5.467572,15.41122 7.267612,16.64718 8.933892,17.2359" id="Fill-1" fill="#F15856"></path>
                                <path d="M10.284164,14.152468 C9.760564,14.694988 9.307804,15.163588 9.307804,15.617668 C9.301204,16.764748 10.202764,17.712068 11.349404,17.761788 C11.367884,17.757388 11.387244,17.754748 11.406604,17.752988 C11.454124,17.756068 11.486684,17.756948 11.526284,17.758708 C12.659724,17.694028 13.544564,16.752868 13.538404,15.617668 C13.538404,14.501388 12.744644,12.881308 11.849244,11.704748 C11.644644,12.743588 10.908084,13.506108 10.284164,14.152468" id="Fill-3" fill="#FFFFFF"></path>
                                <path d="M7.37088,13.488816 C7.49452,13.495856 7.61508,13.449656 7.70264,13.362096 C7.78932,13.273216 7.83288,13.150456 7.821,13.027256 C7.80648,12.868856 7.79592,12.706056 7.79592,12.542816 C7.79592,10.137776 9.16256,6.957016 11.14564,4.588496 C11.20108,6.975056 12.79344,8.661576 14.11036,10.056376 C15.16548,11.174416 16.07716,12.140216 16.07716,13.186096 C16.07804,14.733136 15.30936,16.179416 14.02676,17.044896 C14.2626,16.605776 14.38536,16.115616 14.38448,15.617536 C14.38448,13.916496 13.00024,11.519376 11.71764,10.273296 C11.58476,10.143936 11.38324,10.116656 11.22044,10.205536 C11.05764,10.294416 10.97184,10.478776 11.00836,10.660496 C11.26224,11.921096 10.45572,12.756656 9.6756,13.564496 C9.05124,14.211296 8.46164,14.821136 8.46164,15.617536 C8.4612,16.191296 8.62532,16.752296 8.93376,17.235856 C7.26792,16.647136 5.46744,15.411176 5.13216,12.817376 C5.81636,13.212056 6.5824,13.441736 7.37088,13.488816 M11.52624,17.758576 C11.48664,17.756816 11.45408,17.756376 11.40656,17.752856 C11.3872,17.754616 11.36784,17.757256 11.34936,17.761656 C10.20316,17.711936 9.30116,16.765056 9.30776,15.617536 C9.30776,15.163456 9.76052,14.694856 10.28412,14.152336 C10.90804,13.506416 11.6446,12.743456 11.8492,11.704616 C12.7446,12.881616 13.53836,14.501696 13.53836,15.617536 C13.54452,16.752736 12.66012,17.694336 11.52624,17.758576 M8.01548,17.769136 L7.19224,17.769136 C6.9586,17.769136 6.7694,17.958776 6.7694,18.192416 C6.7694,18.426056 6.9586,18.615256 7.19224,18.615256 L15.65388,18.615256 C15.88752,18.615256 16.07672,18.426056 16.07672,18.192416 C16.07672,17.958776 15.88752,17.769136 15.65388,17.769136 L14.45664,17.769136 C15.99664,16.752296 16.9224,15.031016 16.92284,13.186096 C16.92284,11.803616 15.85584,10.672816 14.72548,9.475136 C13.1714,7.829096 11.56408,6.126736 12.09032,3.466936 C12.12684,3.284336 12.03928,3.099536 11.87516,3.011536 C11.71104,2.923536 11.50908,2.953456 11.37708,3.084576 C8.81188,5.633936 6.9498,9.611536 6.9498,12.542816 C6.9498,12.557336 6.9498,12.572296 6.95024,12.587256 C6.20796,12.482976 5.51584,12.153416 4.96716,11.643456 C4.84968,11.513656 4.66444,11.470096 4.50164,11.533016 C4.3384,11.595936 4.2306,11.752576 4.2306,11.927256 C4.2306,15.283576 6.18332,16.946776 8.01548,17.769136" id="Fill-5" fill="#412312"></path>
                                <g id="Group-9">
                                    <mask id="mask-2" fill="white">
                                        <use xlink:href="#path-1"></use>
                                    </mask>
                                    <g id="Clip-8"></g>
                                    <path d="M11.000044,1.125828 C16.453404,1.125828 20.874084,5.546508 20.874084,10.999868 C20.874084,16.453228 16.453404,20.874348 11.000044,20.874348 C5.546684,20.874348 1.126004,16.453228 1.126004,10.999868 C1.126004,5.546508 5.546684,1.125828 11.000044,1.125828 M11.000044,21.999868 C17.075124,21.999868 22.000044,17.075388 22.000044,10.999868 C22.000044,4.924788 17.075124,-0.000132 11.000044,-0.000132 C4.924964,-0.000132 4.4e-05,4.924788 4.4e-05,10.999868 C0.006644,17.072308 4.927604,21.993268 11.000044,21.999868" id="Fill-7" fill="#412312" mask="url(#mask-2)"></path>
                                </g>
                            </g>
                        </g>
                    </g>
                </g>
            </g>
        </g>
    </g>
</svg>