<?xml version="1.0" encoding="UTF-8"?>
<svg width="25px" height="22px" viewBox="0 0 25 22" version="1.1" xmlns="http://www.w3.org/2000/svg" xmlns:xlink="http://www.w3.org/1999/xlink">
    <!-- Generator: Sketch 52.5 (67469) - http://www.bohemiancoding.com/sketch -->
    <title>ico_lastest_active</title>
    <desc>Created with Sketch.</desc>
    <defs>
        <polygon id="path-1" points="0 0.093324 6.04551111 0.093324 6.04551111 1.288364 0 1.288364"></polygon>
    </defs>
    <g id="saostar-new" stroke="none" stroke-width="1" fill="none" fill-rule="evenodd" opacity="0.846051897">
        <g id="pc-home-t3.2020" transform="translate(-1218.000000, -19.000000)">
            <g id="logo-+-menu-copy" transform="translate(0.000000, 18.000000)">
                <g id="sub-menu-color" transform="translate(1137.000000, 0.000000)">
                    <g id="new" transform="translate(81.000000, 1.000000)">
                        <g id="ico_lastest">
                            <g transform="translate(0.000000, 0.000000)">
                                <path d="M7.7404,13.978492 C7.7404,13.619892 7.50573333,13.380972 7.15328889,13.380972 L2.28173333,13.380972 C1.92973333,13.380972 1.69462222,13.619892 1.69462222,13.978492 C1.69462222,14.337092 1.92973333,14.576012 2.28173333,14.576012 L7.16084444,14.576012 C7.51284444,14.568972 7.7404,14.329612 7.7404,13.978492" id="Fill-1" fill="#F15856"></path>
                                <g id="Group-5" transform="translate(0.000000, 10.120000)">
                                    <mask id="mask-2" fill="white">
                                        <use xlink:href="#path-1"></use>
                                    </mask>
                                    <g id="Clip-4"></g>
                                    <path d="M6.04551111,0.690844 C6.04551111,0.332244 5.81084444,0.093324 5.45884444,0.093324 L0.586844444,0.093324 C0.234844444,0.093324 -0.000266666667,0.332244 -0.000266666667,0.690844 C-0.000266666667,1.049444 0.234844444,1.288364 0.586844444,1.288364 L5.46595556,1.288364 C5.81084444,1.280884 6.04551111,1.041964 6.04551111,0.690844" id="Fill-3" fill="#F15856" mask="url(#mask-2)"></path>
                                </g>
                                <path d="M8.5108,17.14636 C8.5108,16.78776 8.27613333,16.54884 7.92368889,16.54884 L4.86413333,16.54884 C4.51213333,16.54884 4.27746667,16.78776 4.27746667,17.14636 C4.27746667,17.50496 4.51213333,17.74388 4.86413333,17.74388 L7.92368889,17.74388 C8.27613333,17.7364 8.5108,17.50496 8.5108,17.14636" id="Fill-6" fill="#F15856"></path>
                                <path d="M8.26124444,7.642932 C8.26124444,7.284332 8.02657778,7.045412 7.67457778,7.045412 L2.79546667,7.045412 C2.44302222,7.045412 2.20835556,7.284332 2.20835556,7.642932 C2.20835556,8.001532 2.44302222,8.240452 2.79546667,8.240452 L7.67457778,8.240452 C8.02657778,8.232972 8.26124444,7.994052 8.26124444,7.642932" id="Fill-8" fill="#F15856"></path>
                                <path d="M14.1603111,8.8e-05 C10.0807556,8.8e-05 6.34608889,2.346168 4.51231111,6.059328 L5.82564444,6.059328 C8.50342222,1.374648 14.4020889,-0.209352 19.0025333,2.517768 C21.9660889,4.273368 23.7860889,7.501208 23.7936444,10.997448 C23.7936444,16.406808 19.4718667,20.807248 14.1603111,20.807248 C12.0180889,20.807248 9.92697778,20.075088 8.23942222,18.730008 L6.46386667,18.730008 C10.6603111,23.056088 17.5056444,23.093488 21.7460889,18.819768 C23.8007556,16.757928 24.9523111,13.941488 24.9523111,10.997448 C24.9598667,4.931168 20.1176444,8.8e-05 14.1603111,8.8e-05" id="Fill-10" fill="#412312"></path>
                                <path d="M14.1603111,4.512684 C14.5123111,4.512684 14.7469778,4.273764 14.7469778,3.915164 L14.7469778,2.846404 C14.7469778,2.487804 14.5123111,2.248884 14.1603111,2.248884 C13.8078667,2.248884 13.5732,2.487804 13.5732,2.846404 L13.5732,3.915164 C13.5803111,4.250884 13.8372,4.512684 14.1603111,4.512684" id="Fill-12" fill="#412312"></path>
                                <path d="M14.1603111,17.47504 C13.8078667,17.47504 13.5732,17.71396 13.5732,18.07256 L13.5732,19.14132 C13.5732,19.49992 13.8078667,19.73884 14.1603111,19.73884 C14.5123111,19.73884 14.7469778,19.49992 14.7469778,19.14132 L14.7469778,18.07256 C14.7469778,17.7364 14.4829778,17.47504 14.1603111,17.47504" id="Fill-14" fill="#412312"></path>
                                <path d="M22.1572889,10.39984 L21.1084,10.39984 C20.7559556,10.39984 20.5208444,10.63876 20.5208444,10.99736 C20.5208444,11.35596 20.7559556,11.59532 21.1084,11.59532 L22.1572889,11.59532 C22.5092889,11.59532 22.7439556,11.35596 22.7439556,10.99736 C22.7439556,10.66868 22.4804,10.39984 22.1572889,10.39984" id="Fill-16" fill="#412312"></path>
                                <path d="M16.0309778,11.886556 C16.1487556,11.587796 16.2656444,11.289036 16.2656444,10.937916 C16.2656444,9.996316 15.6420889,9.166916 14.7469778,8.920516 L14.7469778,5.774956 C14.7469778,5.416796 14.5123111,5.177436 14.1603111,5.177436 C13.8078667,5.177436 13.5732,5.416796 13.5732,5.774956 L13.5732,8.920516 C12.6780889,9.174396 12.0616444,9.996316 12.0545333,10.937916 C12.0469778,12.110956 12.9860889,13.074556 14.1380889,13.074556 L14.1527556,13.074556 C14.5634222,13.074556 14.9087556,12.954876 15.2607556,12.775796 L18.4154222,15.689476 C18.6505333,15.928836 19.0025333,15.868996 19.2296444,15.629636 C19.4647556,15.390716 19.4060889,15.032116 19.1709778,14.800676 L16.0309778,11.886556 Z M14.1674222,11.946396 C13.6536444,11.946396 13.2358667,11.520476 13.2358667,10.997316 C13.2358667,10.474596 13.6536444,10.048676 14.1674222,10.048676 C14.6812,10.048676 15.0989778,10.474596 15.0989778,10.997316 C15.1065333,11.512996 14.7029778,11.938916 14.1892,11.946396 L14.1674222,11.946396 Z" id="Fill-18" fill="#F15856"></path>
                            </g>
                        </g>
                    </g>
                </g>
            </g>
        </g>
    </g>
</svg>